<?xml version="1.0" encoding="UTF-8" standalone="no"?>
<svg
   xmlns:dc="http://purl.org/dc/elements/1.1/"
   xmlns:cc="http://creativecommons.org/ns#"
   xmlns:rdf="http://www.w3.org/1999/02/22-rdf-syntax-ns#"
   xmlns:svg="http://www.w3.org/2000/svg"
   xmlns="http://www.w3.org/2000/svg"
   viewBox="0 0 512 512"
   height="512"
   width="512"
   id="svg3905"
   version="1.1">
  <metadata
     id="metadata3911">
    <rdf:RDF>
      <cc:Work
         rdf:about="">
        <dc:format>image/svg+xml</dc:format>
        <dc:type
           rdf:resource="http://purl.org/dc/dcmitype/StillImage" />
        <dc:title></dc:title>
      </cc:Work>
    </rdf:RDF>
  </metadata>
  <defs
     id="defs3909" />
  <path
     id="path3923"
     d="m 172.68548,512.22647 c 0.27923,-0.27924 4.27534,-1.89688 8.88024,-3.59476 26.892,-9.91539 40.79574,-22.04626 38.61169,-33.68829 -1.73277,-9.23641 -6.59096,-15.37019 -35.51478,-44.83965 -27.4328,-27.9503 -40.40582,-44.86688 -49.08047,-64 -18.61406,-41.05584 -18.05627,-83.53321 1.62894,-124.04873 15.93401,-32.7949 45.57676,-65.20295 81.75858,-89.38563 l 7.82817,-5.23208 -6.05544,7.62013 c -16.31918,20.53596 -26.99371,47.94288 -32.05062,82.29013 -1.80001,12.22594 -2.42176,30.31545 -1.23226,35.85218 4.59229,21.37562 16.42819,35.45739 45.92177,54.63544 31.21494,20.29736 40.95584,27.82986 49.79049,38.50224 19.97046,24.12459 24.16379,59.87521 10.28454,87.68182 -12.11609,24.2742 -40.49452,42.65103 -80.53075,52.14878 -12.38808,2.9388 -41.50411,7.32242 -40.2401,6.05842 z m 141.95603,-6.95981 c 0,-0.20616 3.34605,-8.47516 7.43566,-18.37555 17.9123,-43.36325 22.76345,-65.27355 19.59144,-88.48514 -4.6844,-34.27864 -25.61874,-62.98288 -69.5271,-95.33246 -6.6,-4.86256 -14.6553,-11.34498 -17.90067,-14.40538 -12.79668,-12.06733 -20.61,-28.57499 -22.78558,-48.14041 -5.45141,-49.02577 28.92286,-121.3774 97.07926,-204.334304 11.42385,-13.904604 29.10699,-34.0247917 29.10699,-33.1184518 0,0.3055062 -3.09573,6.7369682 -6.87939,14.2921378 -27.51495,54.941449 -38.69702,97.661318 -32.25762,123.236668 4.67619,18.57238 13.34712,29.9933 34.72984,45.74441 7.64894,5.63442 19.30717,14.21841 25.90717,19.07553 16.22726,11.94208 25.10114,19.83208 33.82294,30.07286 18.02825,21.16805 30.14061,45.02777 33.60081,66.18911 1.55597,9.51569 1.32202,26.63356 -0.52256,38.23586 -3.98213,25.04735 -18.94359,55.10989 -42.1002,84.59327 -9.26424,11.79538 -42.08663,44.56166 -56.30099,56.20474 -10.15117,8.31489 -33,25.31104 -33,24.54711 z M 147.84403,493.0463 C 120.4659,485.67733 90.86967,456.17231 82.197533,427.60211 72.845928,396.7934 78.272052,355.75989 96.414231,320.09237 l 3.046083,-5.9886 0.06634,13.6747 c 0.0935,19.2748 2.581896,30.65064 10.133356,46.3253 9.1904,19.07662 22.05941,34.34156 51.22444,60.76129 10.78379,9.76871 20.99705,19.51652 22.69615,21.6618 14.63966,18.48408 2.48574,38.25183 -23.37059,38.0111 -3.88768,-0.0362 -9.45237,-0.70744 -12.36598,-1.49166 z"
     style="fill:#1cb853" />
</svg>
